<svg width="584" height="1381" viewBox="0 0 584 1381" fill="none" xmlns="http://www.w3.org/2000/svg">
<g opacity="0.25">
<path d="M301.55 956.647L413.642 965.048L409.802 1124.87L407.76 1129.53L301.55 956.647Z" fill="#030303"/>
<path d="M176.817 1205.76L300.888 1222.04L297.089 1380.2L284.77 1371.02L176.817 1205.76Z" fill="#030303"/>
<path d="M143.832 1105.01L172.006 935.243L255.216 1062.25L143.832 1105.01Z" fill="#030303"/>
<path d="M404.017 687.916L389.479 861.792L283.063 682.122L404.017 687.916Z" fill="#030303"/>
<path d="M104.321 772.854L172.006 935.243L45.8073 906.219L104.321 772.854Z" fill="#030303"/>
<path d="M159.93 435.003L181.404 280.504L292.822 448.772L159.93 435.003Z" fill="#030303"/>
<path d="M6.8977 150.478L21.0142 -0.000639393L76.6852 41.4802L116.015 112.881L6.8977 150.478Z" fill="#030303"/>
<path d="M297.089 1380.2L300.888 1222.04L341.876 1279.69L297.607 1380.59L297.089 1380.2Z" fill="#272727"/>
<path d="M413.642 965.048L454.629 1022.7L409.802 1124.87L413.642 965.048Z" fill="#272727"/>
<path d="M301.55 956.647L407.76 1129.53L406.964 1131.34L255.216 1062.25L301.55 956.647Z" fill="#272727"/>
<path d="M255.216 1062.25L406.964 1131.34L404.635 1136.65L300.888 1222.04L255.216 1062.25Z" fill="#494949"/>
<path d="M143.832 1105.01L176.817 1205.76L58.5607 1193.81L143.832 1105.01Z" fill="#494949"/>
<path d="M256.585 848.024L283.063 682.122L389.478 861.792L256.585 848.024Z" fill="#272727"/>
<path d="M389.478 861.792L301.55 956.647L256.585 848.024L389.478 861.792Z" fill="#2B2B2B"/>
<path d="M176.817 1205.76L170.749 1286.07L67.3929 1209.05L58.5607 1193.81L176.817 1205.76Z" fill="#272727"/>
<path d="M180.069 705.761L256.585 848.024L104.321 772.854L180.069 705.761Z" fill="#494949"/>
<path d="M292.822 448.772L325.424 268.913L396.507 423.557L292.822 448.772Z" fill="#494949"/>
<path d="M396.508 423.557L369.338 591.035L292.822 448.772L396.508 423.557Z" fill="#272727"/>
<path d="M369.338 591.035L283.063 682.122L202.55 513.786L369.338 591.035Z" fill="#1B1B1B"/>
<path d="M172.006 935.243L143.832 1105.01L45.8073 906.219L172.006 935.243Z" fill="#1B1B1B"/>
<path d="M181.404 280.504L325.424 268.913L292.822 448.772L181.404 280.504Z" fill="#272727"/>
<path d="M48.884 547.362L202.549 513.786L180.069 705.761L48.884 547.362Z" fill="#2B2B2B"/>
<path d="M180.069 705.761L104.321 772.854L0.00011027 641.186L180.069 705.761Z" fill="#272727"/>
<path d="M51.3585 260.247L116.015 112.881L181.404 280.504L51.3585 260.247Z" fill="#272727"/>
<path d="M181.404 280.504L116.015 112.881L243.826 166.018L267.595 183.728L181.404 280.504Z" fill="#2B2B2B"/>
<path d="M359.807 1238.82L300.888 1222.04L404.634 1136.65L359.807 1238.82Z" fill="#0F0F0F"/>
<path d="M359.807 1238.82L341.876 1279.69L300.888 1222.04L359.807 1238.82Z" fill="#0F0F0F"/>
<path d="M170.749 1286.07L176.817 1205.76L284.77 1371.02L170.749 1286.07Z" fill="#0F0F0F"/>
<path d="M255.216 1062.25L300.888 1222.04L176.817 1205.76L255.216 1062.25Z" fill="#272727"/>
<path d="M389.478 861.792L413.642 965.048L301.55 956.647L389.478 861.792Z" fill="#0F0F0F"/>
<path d="M67.3931 1209.05L57.2995 1201.53L58.5609 1193.81L67.3931 1209.05Z" fill="#0F0F0F"/>
<path d="M301.55 956.647L172.006 935.243L256.585 848.024L301.55 956.647Z" fill="#0F0F0F"/>
<path d="M369.338 591.035L404.017 687.916L283.063 682.122L369.338 591.035Z" fill="#0F0F0F"/>
<path d="M301.55 956.647L255.216 1062.25L172.006 935.243L301.55 956.647Z" fill="#0F0F0F"/>
<path d="M255.216 1062.25L176.817 1205.76L143.832 1105.01L255.216 1062.25Z" fill="#0F0F0F"/>
<path d="M180.069 705.761L202.549 513.786L283.063 682.122L180.069 705.761Z" fill="#0F0F0F"/>
<path d="M202.55 513.786L292.822 448.773L292.822 448.772L369.338 591.035L202.55 513.786Z" fill="#0F0F0F"/>
<path d="M350.078 245.188L453.235 322.049L325.424 268.913L350.078 245.188Z" fill="#0F0F0F"/>
<path d="M283.063 682.122L256.585 848.024L180.069 705.761L283.063 682.122Z" fill="#0F0F0F"/>
<path d="M256.585 848.024L172.006 935.243L104.321 772.854L256.585 848.024Z" fill="#272727"/>
<path d="M58.5609 1193.81L57.2996 1201.53L48.414 1194.91L58.5609 1193.81Z" fill="#0F0F0F"/>
<path d="M0.000104404 641.186L48.884 547.362L180.069 705.761L0.000104404 641.186Z" fill="#0F0F0F"/>
<path d="M159.93 435.003L202.549 513.786L48.884 547.362L159.93 435.003Z" fill="#0F0F0F"/>
<path d="M267.594 183.728L282.397 194.758L325.424 268.913L181.404 280.504L267.594 183.728Z" fill="#272727"/>
<path d="M325.424 268.913L282.397 194.758L350.078 245.188L325.424 268.913Z" fill="#0F0F0F"/>
<path d="M202.55 513.786L202.549 513.786L159.93 435.005L292.822 448.773L202.55 513.786Z" fill="#272727"/>
<path d="M116.015 112.881L129.934 81.1575L243.826 166.018L116.015 112.881Z" fill="#0F0F0F"/>
<path d="M159.93 435.004L51.3584 260.247L181.404 280.504L159.93 435.004Z" fill="#0F0F0F"/>
<path d="M76.6852 41.4805L129.934 81.1575L116.015 112.881L76.6852 41.4805Z" fill="#0F0F0F"/>
<path d="M51.3585 260.247L6.89771 150.479L116.015 112.881L51.3585 260.247Z" fill="#0F0F0F"/>
<path d="M297.476 1379.94L301.243 1223.19L341.44 1279.74L297.476 1379.94ZM297.607 1380.59L341.876 1279.69L300.888 1222.04L297.089 1380.2L297.607 1380.59Z" fill="url(#paint0_radial_31_497)"/>
<path d="M410.23 1122.95L413.996 966.202L454.194 1022.75L410.23 1122.95M409.803 1124.87L454.629 1022.7L413.642 965.046L409.802 1124.87L409.803 1124.87Z" fill="url(#paint1_radial_31_497)"/>
<path d="M406.771 1130.83L255.716 1062.06L301.607 957.468L407.331 1129.56L406.769 1130.83M406.964 1131.34L407.76 1129.53L301.55 956.647L255.216 1062.25L406.964 1131.34Z" fill="url(#paint2_radial_31_497)"/>
<path d="M301.095 1221.37L255.809 1062.94L406.464 1131.53L404.323 1136.41L301.095 1221.37ZM300.888 1222.04L404.634 1136.65L406.964 1131.34L255.216 1062.25L300.888 1222.04Z" fill="url(#paint3_radial_31_497)"/>
<path d="M176.272 1205.32L59.3776 1193.51L143.667 1105.73L176.272 1205.32ZM176.817 1205.76L143.832 1105.01L58.5608 1193.81L176.816 1205.76L176.817 1205.76Z" fill="url(#paint4_radial_31_497)"/>
<path d="M388.765 861.335L257.026 847.686L283.273 683.224L388.765 861.335ZM389.478 861.792L283.064 682.122L256.586 848.024L389.478 861.792Z" fill="url(#paint5_radial_31_497)"/>
<path d="M301.675 955.953L257.182 848.47L388.679 862.093L301.675 955.953ZM301.55 956.647L389.478 861.792L256.586 848.024L301.551 956.647L301.55 956.647Z" fill="url(#paint6_radial_31_497)"/>
<path d="M170.421 1285.35L67.6839 1208.8L59.2646 1194.26L176.408 1206.1L170.42 1285.35M170.748 1286.06L176.816 1205.75L58.5608 1193.81L67.393 1209.05L170.749 1286.06L170.748 1286.06Z" fill="url(#paint7_radial_31_497)"/>
<path d="M255.684 847.155L104.998 772.764L179.961 706.365L255.684 847.155ZM256.585 848.024L180.069 705.761L104.321 772.854L256.585 848.024Z" fill="url(#paint8_radial_31_497)"/>
<path d="M395.968 423.295L293.302 448.262L325.584 270.17L395.968 423.295ZM396.508 423.556L325.425 268.911L292.823 448.771L396.508 423.554L396.508 423.556Z" fill="url(#paint9_radial_31_497)"/>
<path d="M369.143 589.866L293.392 449.027L396.041 424.064L369.144 589.866M369.341 591.036L396.509 423.558L292.825 448.774L369.341 591.037L369.341 591.036Z" fill="url(#paint10_radial_31_497)"/>
<path d="M283.167 681.458L203.349 514.577L368.695 591.158L283.165 681.457M283.061 682.121L369.337 591.035L202.548 513.786L283.061 682.122L283.061 682.121Z" fill="url(#paint11_radial_31_497)"/>
<path d="M143.65 1103.78L46.5047 906.77L171.572 935.534L143.65 1103.78ZM143.832 1105.01L172.006 935.243L45.8073 906.219L143.832 1105.01Z" fill="url(#paint12_radial_31_497)"/>
<path d="M292.616 447.771L182.078 280.832L324.96 269.332L292.616 447.771ZM292.822 448.772L325.424 268.913L181.404 280.504L292.822 448.772Z" fill="url(#paint13_radial_31_497)"/>
<path d="M179.794 704.832L49.5775 547.6L202.109 514.272L179.794 704.832ZM180.069 705.762L202.549 513.787L48.884 547.363L180.069 705.762Z" fill="url(#paint14_radial_31_497)"/>
<path d="M104.37 772.302L1.1281 641.994L179.335 705.902L104.37 772.302ZM104.321 772.854L180.069 705.761L0.00011027 641.185L104.32 772.853L104.321 772.854Z" fill="url(#paint15_radial_31_497)"/>
<path d="M180.808 280.025L51.9059 259.946L115.994 113.877L180.808 280.025ZM181.404 280.504L116.015 112.881L51.3585 260.246L181.404 280.503L181.404 280.504Z" fill="url(#paint16_radial_31_497)"/>
<path d="M181.534 279.786L116.696 113.577L243.637 166.352L267.034 183.785L181.535 279.786M181.405 280.504L267.596 183.728L243.828 166.018L116.017 112.881L181.405 280.504Z" fill="url(#paint17_radial_31_497)"/>
<path d="M359.591 1238.36L301.691 1221.87L403.643 1137.96L359.59 1238.36M359.806 1238.82L404.634 1136.65L300.888 1222.04L359.807 1238.82L359.806 1238.82Z" fill="url(#paint18_radial_31_497)"/>
<path d="M341.798 1278.92L301.828 1222.7L359.283 1239.07L341.798 1278.92ZM341.876 1279.69L359.807 1238.82L300.888 1222.04L341.876 1279.69Z" fill="url(#paint19_radial_31_497)"/>
<path d="M283.278 1369.44L171.145 1285.89L177.113 1206.91L283.278 1369.44ZM284.77 1371.02L176.817 1205.76L170.749 1286.07L284.77 1371.02Z" fill="url(#paint20_radial_31_497)"/>
<path d="M300.362 1221.58L177.418 1205.45L255.104 1063.25L300.362 1221.58ZM300.888 1222.04L255.216 1062.25L176.817 1205.76L300.888 1222.04Z" fill="url(#paint21_radial_31_497)"/>
<path d="M413.153 964.629L302.367 956.326L389.27 862.577L413.153 964.629ZM413.642 965.048L389.477 861.794L301.549 956.649L413.642 965.049L413.642 965.048Z" fill="url(#paint22_radial_31_497)"/>
<path d="M66.1341 1207.64L57.7122 1201.37L58.7652 1194.92L66.1341 1207.64M67.393 1209.05L58.5607 1193.81L57.2981 1201.53L67.393 1209.05Z" fill="url(#paint23_radial_31_497)"/>
<path d="M300.935 956.16L172.786 934.987L256.454 848.706L300.935 956.16ZM301.55 956.647L256.585 848.024L172.006 935.243L301.55 956.647Z" fill="url(#paint24_radial_31_497)"/>
<path d="M403.467 687.508L283.911 681.781L369.19 591.747L403.468 687.508M404.019 687.916L369.341 591.035L283.065 682.121L404.019 687.916Z" fill="url(#paint25_radial_31_497)"/>
<path d="M255.15 1061.45L172.802 935.762L301.004 956.943L255.15 1061.45ZM255.216 1062.25L301.55 956.647L172.006 935.243L255.216 1062.25Z" fill="url(#paint26_radial_31_497)"/>
<path d="M176.904 1204.8L144.307 1105.24L254.384 1062.98L176.904 1204.8ZM176.817 1205.76L255.216 1062.25L143.832 1105.01L176.817 1205.76Z" fill="url(#paint27_radial_31_497)"/>
<path d="M282.514 681.857L180.511 705.269L202.775 515.14L282.514 681.857ZM283.063 682.122L202.549 513.787L180.069 705.762L283.063 682.122Z" fill="url(#paint28_radial_31_497)"/>
<path d="M368.462 590.209L203.302 513.715L292.694 449.336L368.463 590.209M369.339 591.035L292.823 448.772L202.55 513.786L369.339 591.035Z" fill="url(#paint29_radial_31_497)"/>
<path d="M450.539 320.516L326.107 268.784L350.11 245.687L450.539 320.518M453.235 322.051L350.078 245.189L325.424 268.914L453.235 322.05L453.235 322.051Z" fill="url(#paint30_radial_31_497)"/>
<path d="M256.387 846.85L180.642 706.021L282.598 682.62L256.387 846.851M256.585 848.025L283.063 682.124L180.069 705.763L256.585 848.026L256.585 848.025Z" fill="url(#paint31_radial_31_497)"/>
<path d="M172.136 934.562L105.064 773.645L255.947 848.133L172.135 934.561M172.005 935.242L256.584 848.023L104.32 772.853L172.005 935.242Z" fill="url(#paint32_radial_31_497)"/>
<path d="M57.0238 1200.85L49.4187 1195.19L58.1035 1194.24L57.0238 1200.85ZM57.2982 1201.53L58.5608 1193.81L48.4138 1194.91L57.2994 1201.53L57.2982 1201.53Z" fill="url(#paint33_radial_31_497)"/>
<path d="M178.888 704.933L0.53997 640.974L48.9564 548.046L178.888 704.933ZM180.069 705.761L48.884 547.362L0.000104404 641.187L180.069 705.762L180.069 705.761Z" fill="url(#paint34_radial_31_497)"/>
<path d="M201.973 513.521L50.0602 546.714L159.84 435.637L201.973 513.521ZM202.55 513.786L159.93 435.003L48.8852 547.36L202.55 513.784L202.55 513.786Z" fill="url(#paint35_radial_31_497)"/>
<path d="M324.791 268.581L182.321 280.048L267.647 184.243L282.106 195.017L324.791 268.582M325.424 268.914L282.397 194.759L267.594 183.73L181.404 280.505L325.424 268.914Z" fill="url(#paint36_radial_31_497)"/>
<path d="M325.51 268.302L283.66 196.173L349.492 245.225L325.51 268.302ZM325.424 268.913L350.078 245.188L282.397 194.758L325.424 268.913Z" fill="url(#paint37_radial_31_497)"/>
<path d="M202.679 513.223L160.608 435.457L291.787 449.047L202.679 513.223ZM202.549 513.786L292.822 448.772L159.93 435.003L202.55 513.786L202.549 513.786Z" fill="url(#paint38_radial_31_497)"/>
<path d="M241.131 164.485L116.521 112.679L130.091 81.7494L241.131 164.485ZM243.827 166.018L129.935 81.1562L116.017 112.881L243.828 166.018L243.827 166.018Z" fill="url(#paint39_radial_31_497)"/>
<path d="M159.697 433.907L52.1206 260.75L180.975 280.822L159.696 433.906M159.929 435.002L181.404 280.503L51.3584 260.246L159.929 435.004L159.929 435.002Z" fill="url(#paint40_radial_31_497)"/>
<path d="M115.976 112.021L77.8665 42.8372L129.462 81.282L115.976 112.021ZM116.015 112.881L129.935 81.1562L76.6851 41.4805L116.015 112.881Z" fill="url(#paint41_radial_31_497)"/>
<path d="M51.3725 259.266L7.40079 150.707L115.316 113.525L51.3713 259.266M51.3573 260.247L116.014 112.882L6.89649 150.479L51.3586 260.247L51.3573 260.247Z" fill="url(#paint42_radial_31_497)"/>
</g>
<defs>
<radialGradient id="paint0_radial_31_497" cx="0" cy="0" r="1" gradientUnits="userSpaceOnUse" gradientTransform="translate(308.918 1298.08) rotate(161.66) scale(58.9877 58.9877)">
<stop stop-color="white"/>
<stop offset="1" stop-color="#272727"/>
</radialGradient>
<radialGradient id="paint1_radial_31_497" cx="0" cy="0" r="1" gradientUnits="userSpaceOnUse" gradientTransform="translate(421.587 1041.67) rotate(161.66) scale(59.4031 59.4031)">
<stop stop-color="white"/>
<stop offset="1" stop-color="#272727"/>
</radialGradient>
<radialGradient id="paint2_radial_31_497" cx="0" cy="0" r="1" gradientUnits="userSpaceOnUse" gradientTransform="translate(318.253 1055.91) rotate(161.66) scale(82.8256)">
<stop stop-color="white"/>
<stop offset="1" stop-color="#272727"/>
</radialGradient>
<radialGradient id="paint3_radial_31_497" cx="0" cy="0" r="1" gradientUnits="userSpaceOnUse" gradientTransform="translate(336.098 1122.87) rotate(161.66) scale(74.3885)">
<stop stop-color="white"/>
<stop offset="1" stop-color="#272727"/>
</radialGradient>
<radialGradient id="paint4_radial_31_497" cx="0" cy="0" r="1" gradientUnits="userSpaceOnUse" gradientTransform="translate(108.841 1172.41) rotate(161.66) scale(53.7275)">
<stop stop-color="white"/>
<stop offset="1" stop-color="#272727"/>
</radialGradient>
<radialGradient id="paint5_radial_31_497" cx="0" cy="0" r="1" gradientUnits="userSpaceOnUse" gradientTransform="translate(299.597 784.099) rotate(161.66) scale(84.0133 84.0133)">
<stop stop-color="white"/>
<stop offset="1" stop-color="#272727"/>
</radialGradient>
<radialGradient id="paint6_radial_31_497" cx="0" cy="0" r="1" gradientUnits="userSpaceOnUse" gradientTransform="translate(332.871 884.477) rotate(161.66) scale(59.7765 59.7765)">
<stop stop-color="white"/>
<stop offset="1" stop-color="#272727"/>
</radialGradient>
<radialGradient id="paint7_radial_31_497" cx="0" cy="0" r="1" gradientUnits="userSpaceOnUse" gradientTransform="translate(129.383 1235.01) rotate(161.66) scale(57.9524 57.9524)">
<stop stop-color="white"/>
<stop offset="1" stop-color="#272727"/>
</radialGradient>
<radialGradient id="paint8_radial_31_497" cx="0" cy="0" r="1" gradientUnits="userSpaceOnUse" gradientTransform="translate(174.216 791.491) rotate(161.66) scale(70.6462 70.6462)">
<stop stop-color="white"/>
<stop offset="1" stop-color="#272727"/>
</radialGradient>
<radialGradient id="paint9_radial_31_497" cx="0" cy="0" r="1" gradientUnits="userSpaceOnUse" gradientTransform="translate(319.481 359.985) rotate(161.66) scale(70.645 70.645)">
<stop stop-color="white"/>
<stop offset="1" stop-color="#272727"/>
</radialGradient>
<radialGradient id="paint10_radial_31_497" cx="0" cy="0" r="1" gradientUnits="userSpaceOnUse" gradientTransform="translate(368.391 507.527) rotate(161.66) scale(67.6649 67.6649)">
<stop stop-color="white"/>
<stop offset="1" stop-color="#272727"/>
</radialGradient>
<radialGradient id="paint11_radial_31_497" cx="0" cy="0" r="1" gradientUnits="userSpaceOnUse" gradientTransform="translate(295.326 580.526) rotate(161.66) scale(80.797 80.797)">
<stop stop-color="white"/>
<stop offset="1" stop-color="#272727"/>
</radialGradient>
<radialGradient id="paint12_radial_31_497" cx="0" cy="0" r="1" gradientUnits="userSpaceOnUse" gradientTransform="translate(132.887 992.957) rotate(161.66) scale(86.921)">
<stop stop-color="white"/>
<stop offset="1" stop-color="#272727"/>
</radialGradient>
<radialGradient id="paint13_radial_31_497" cx="0" cy="0" r="1" gradientUnits="userSpaceOnUse" gradientTransform="translate(278.732 350.83) rotate(161.66) scale(84.8809 84.8809)">
<stop stop-color="white"/>
<stop offset="1" stop-color="#272727"/>
</radialGradient>
<radialGradient id="paint14_radial_31_497" cx="0" cy="0" r="1" gradientUnits="userSpaceOnUse" gradientTransform="translate(153.326 613.655) rotate(161.66) scale(87.4596 87.4596)">
<stop stop-color="white"/>
<stop offset="1" stop-color="#272727"/>
</radialGradient>
<radialGradient id="paint15_radial_31_497" cx="0" cy="0" r="1" gradientUnits="userSpaceOnUse" gradientTransform="translate(96.3465 692.338) rotate(161.66) scale(77.1221)">
<stop stop-color="white"/>
<stop offset="1" stop-color="#272727"/>
</radialGradient>
<radialGradient id="paint16_radial_31_497" cx="0" cy="0" r="1" gradientUnits="userSpaceOnUse" gradientTransform="translate(97.6503 213.604) rotate(161.66) scale(75.8201 75.8201)">
<stop stop-color="white"/>
<stop offset="1" stop-color="#272727"/>
</radialGradient>
<radialGradient id="paint17_radial_31_497" cx="0" cy="0" r="1" gradientUnits="userSpaceOnUse" gradientTransform="translate(202.072 178.989) rotate(161.66) scale(76.7042 76.7042)">
<stop stop-color="white"/>
<stop offset="1" stop-color="#272727"/>
</radialGradient>
<radialGradient id="paint18_radial_31_497" cx="0" cy="0" r="1" gradientUnits="userSpaceOnUse" gradientTransform="translate(358.189 1195.68) rotate(161.66) scale(53.1266 53.1266)">
<stop stop-color="white"/>
<stop offset="1" stop-color="#272727"/>
</radialGradient>
<radialGradient id="paint19_radial_31_497" cx="0" cy="0" r="1" gradientUnits="userSpaceOnUse" gradientTransform="translate(335.562 1246.13) rotate(161.66) scale(29.8692 29.8692)">
<stop stop-color="white"/>
<stop offset="1" stop-color="#272727"/>
</radialGradient>
<radialGradient id="paint20_radial_31_497" cx="0" cy="0" r="1" gradientUnits="userSpaceOnUse" gradientTransform="translate(216.059 1293.24) rotate(161.66) scale(73.3672 73.3672)">
<stop stop-color="white"/>
<stop offset="1" stop-color="#272727"/>
</radialGradient>
<radialGradient id="paint21_radial_31_497" cx="0" cy="0" r="1" gradientUnits="userSpaceOnUse" gradientTransform="translate(224.597 1159.83) rotate(161.66) scale(72.3433 72.3433)">
<stop stop-color="white"/>
<stop offset="1" stop-color="#272727"/>
</radialGradient>
<radialGradient id="paint22_radial_31_497" cx="0" cy="0" r="1" gradientUnits="userSpaceOnUse" gradientTransform="translate(352.343 929.721) rotate(161.66) scale(54.7653 54.7653)">
<stop stop-color="white"/>
<stop offset="1" stop-color="#272727"/>
</radialGradient>
<radialGradient id="paint23_radial_31_497" cx="0" cy="0" r="1" gradientUnits="userSpaceOnUse" gradientTransform="translate(61.2567 1201.95) rotate(161.66) scale(6.6105 6.6105)">
<stop stop-color="white"/>
<stop offset="1" stop-color="#272727"/>
</radialGradient>
<radialGradient id="paint24_radial_31_497" cx="0" cy="0" r="1" gradientUnits="userSpaceOnUse" gradientTransform="translate(227.963 919.254) rotate(161.66) scale(58.3703 58.3703)">
<stop stop-color="white"/>
<stop offset="1" stop-color="#272727"/>
</radialGradient>
<radialGradient id="paint25_radial_31_497" cx="0" cy="0" r="1" gradientUnits="userSpaceOnUse" gradientTransform="translate(334.252 656.848) rotate(161.66) scale(54.0234 54.0235)">
<stop stop-color="white"/>
<stop offset="1" stop-color="#272727"/>
</radialGradient>
<radialGradient id="paint26_radial_31_497" cx="0" cy="0" r="1" gradientUnits="userSpaceOnUse" gradientTransform="translate(250.275 986.563) rotate(161.66) scale(66.1825 66.1825)">
<stop stop-color="white"/>
<stop offset="1" stop-color="#272727"/>
</radialGradient>
<radialGradient id="paint27_radial_31_497" cx="0" cy="0" r="1" gradientUnits="userSpaceOnUse" gradientTransform="translate(216.022 1133.97) rotate(161.66) scale(57.8139 57.8139)">
<stop stop-color="white"/>
<stop offset="1" stop-color="#272727"/>
</radialGradient>
<radialGradient id="paint28_radial_31_497" cx="0" cy="0" r="1" gradientUnits="userSpaceOnUse" gradientTransform="translate(204.052 610.783) rotate(161.66) scale(75.2802 75.2802)">
<stop stop-color="white"/>
<stop offset="1" stop-color="#272727"/>
</radialGradient>
<radialGradient id="paint29_radial_31_497" cx="0" cy="0" r="1" gradientUnits="userSpaceOnUse" gradientTransform="translate(280.757 536.577) rotate(161.66) scale(73.5476 73.5475)">
<stop stop-color="white"/>
<stop offset="1" stop-color="#272727"/>
</radialGradient>
<radialGradient id="paint30_radial_31_497" cx="0" cy="0" r="1" gradientUnits="userSpaceOnUse" gradientTransform="translate(387.08 288.454) rotate(161.66) scale(52.5042 52.5042)">
<stop stop-color="white"/>
<stop offset="1" stop-color="#272727"/>
</radialGradient>
<radialGradient id="paint31_radial_31_497" cx="0" cy="0" r="1" gradientUnits="userSpaceOnUse" gradientTransform="translate(255.07 764.689) rotate(161.66) scale(67.4388 67.4388)">
<stop stop-color="white"/>
<stop offset="1" stop-color="#272727"/>
</radialGradient>
<radialGradient id="paint32_radial_31_497" cx="0" cy="0" r="1" gradientUnits="userSpaceOnUse" gradientTransform="translate(189.321 837.058) rotate(161.66) scale(75.3221 75.3221)">
<stop stop-color="white"/>
<stop offset="1" stop-color="#272727"/>
</radialGradient>
<radialGradient id="paint33_radial_31_497" cx="0" cy="0" r="1" gradientUnits="userSpaceOnUse" gradientTransform="translate(54.5806 1197.6) rotate(161.66) scale(4.76988 4.76988)">
<stop stop-color="white"/>
<stop offset="1" stop-color="#272727"/>
</radialGradient>
<radialGradient id="paint34_radial_31_497" cx="0" cy="0" r="1" gradientUnits="userSpaceOnUse" gradientTransform="translate(78.4876 638.464) rotate(161.66) scale(86.1715 86.1715)">
<stop stop-color="white"/>
<stop offset="1" stop-color="#272727"/>
</radialGradient>
<radialGradient id="paint35_radial_31_497" cx="0" cy="0" r="1" gradientUnits="userSpaceOnUse" gradientTransform="translate(114.491 496.502) rotate(161.66) scale(63.4882 63.4883)">
<stop stop-color="white"/>
<stop offset="1" stop-color="#272727"/>
</radialGradient>
<radialGradient id="paint36_radial_31_497" cx="0" cy="0" r="1" gradientUnits="userSpaceOnUse" gradientTransform="translate(243.304 243.953) rotate(161.66) scale(60.7356 60.7355)">
<stop stop-color="white"/>
<stop offset="1" stop-color="#272727"/>
</radialGradient>
<radialGradient id="paint37_radial_31_497" cx="0" cy="0" r="1" gradientUnits="userSpaceOnUse" gradientTransform="translate(318.638 226.95) rotate(161.66) scale(34.2491 34.2491)">
<stop stop-color="white"/>
<stop offset="1" stop-color="#272727"/>
</radialGradient>
<radialGradient id="paint38_radial_31_497" cx="0" cy="0" r="1" gradientUnits="userSpaceOnUse" gradientTransform="translate(231.675 457.656) rotate(161.66) scale(53.1673 53.1673)">
<stop stop-color="white"/>
<stop offset="1" stop-color="#272727"/>
</radialGradient>
<radialGradient id="paint39_radial_31_497" cx="0" cy="0" r="1" gradientUnits="userSpaceOnUse" gradientTransform="translate(175.957 127.198) rotate(161.66) scale(55.3255 55.3254)">
<stop stop-color="white"/>
<stop offset="1" stop-color="#272727"/>
</radialGradient>
<radialGradient id="paint40_radial_31_497" cx="0" cy="0" r="1" gradientUnits="userSpaceOnUse" gradientTransform="translate(138.464 336.724) rotate(161.66) scale(81.9466 81.9466)">
<stop stop-color="white"/>
<stop offset="1" stop-color="#272727"/>
</radialGradient>
<radialGradient id="paint41_radial_31_497" cx="0" cy="0" r="1" gradientUnits="userSpaceOnUse" gradientTransform="translate(107.448 73.4867) rotate(161.66) scale(31.3694 31.3694)">
<stop stop-color="white"/>
<stop offset="1" stop-color="#272727"/>
</radialGradient>
<radialGradient id="paint42_radial_31_497" cx="0" cy="0" r="1" gradientUnits="userSpaceOnUse" gradientTransform="translate(80.134 187.722) rotate(161.66) scale(58.7425 58.7425)">
<stop stop-color="white"/>
<stop offset="1" stop-color="#272727"/>
</radialGradient>
</defs>
</svg>
