<svg width="584" height="1381" viewBox="0 0 584 1381" fill="none" xmlns="http://www.w3.org/2000/svg">
<g opacity="0.25">
<path d="M281.602 423.941L169.51 415.541L173.35 255.715L175.392 251.062L281.602 423.941Z" fill="#030303"/>
<path d="M406.335 174.833L282.263 158.553L286.063 0.386169L298.382 9.56516L406.335 174.833Z" fill="#030303"/>
<path d="M439.32 275.576L411.145 445.345L327.936 318.338L439.32 275.576Z" fill="#030303"/>
<path d="M179.135 692.672L193.673 518.796L300.089 698.466L179.135 692.672Z" fill="#030303"/>
<path d="M478.831 607.734L411.146 445.345L537.345 474.37L478.831 607.734Z" fill="#030303"/>
<path d="M423.222 945.585L401.748 1100.08L290.33 931.816L423.222 945.585Z" fill="#030303"/>
<path d="M576.254 1230.11L562.138 1380.59L506.467 1339.11L467.137 1267.71L576.254 1230.11Z" fill="#030303"/>
<path d="M286.063 0.386163L282.264 158.553L241.276 100.898L285.545 0L286.063 0.386163Z" fill="#272727"/>
<path d="M169.51 415.541L128.522 357.887L173.35 255.715L169.51 415.541Z" fill="#272727"/>
<path d="M281.602 423.941L175.392 251.062L176.188 249.247L327.936 318.338L281.602 423.941Z" fill="#272727"/>
<path d="M327.936 318.338L176.188 249.247L178.517 243.938L282.264 158.553L327.936 318.338Z" fill="#494949"/>
<path d="M439.32 275.576L406.335 174.833L524.591 186.78L439.32 275.576Z" fill="#494949"/>
<path d="M326.567 532.565L300.089 698.466L193.673 518.796L326.567 532.565Z" fill="#272727"/>
<path d="M193.673 518.796L281.602 423.941L326.567 532.565L193.673 518.796Z" fill="#2B2B2B"/>
<path d="M406.335 174.833L412.403 94.5222L515.759 171.534L524.591 186.78L406.335 174.833Z" fill="#272727"/>
<path d="M403.083 674.828L326.567 532.565L478.831 607.734L403.083 674.828Z" fill="#494949"/>
<path d="M290.33 931.816L257.728 1111.68L186.645 957.031L290.33 931.816Z" fill="#494949"/>
<path d="M186.644 957.031L213.814 789.554L290.33 931.816L186.644 957.031Z" fill="#272727"/>
<path d="M213.814 789.553L300.089 698.466L380.602 866.803L213.814 789.553Z" fill="#1B1B1B"/>
<path d="M411.146 445.345L439.32 275.576L537.345 474.37L411.146 445.345Z" fill="#1B1B1B"/>
<path d="M401.748 1100.08L257.728 1111.68L290.33 931.816L401.748 1100.08Z" fill="#272727"/>
<path d="M534.268 833.227L380.603 866.803L403.083 674.828L534.268 833.227Z" fill="#2B2B2B"/>
<path d="M403.083 674.828L478.831 607.734L583.152 739.402L403.083 674.828Z" fill="#272727"/>
<path d="M531.794 1120.34L467.137 1267.71L401.748 1100.08L531.794 1120.34Z" fill="#272727"/>
<path d="M401.748 1100.08L467.137 1267.71L339.325 1214.57L315.557 1196.86L401.748 1100.08Z" fill="#2B2B2B"/>
<path d="M223.344 141.766L282.264 158.553L178.518 243.938L223.344 141.766Z" fill="#0F0F0F"/>
<path d="M223.344 141.766L241.276 100.898L282.263 158.553L223.344 141.766Z" fill="#0F0F0F"/>
<path d="M412.403 94.5223L406.335 174.833L298.382 9.56512L412.403 94.5223Z" fill="#0F0F0F"/>
<path d="M327.936 318.338L282.263 158.553L406.335 174.833L327.936 318.338Z" fill="#272727"/>
<path d="M193.673 518.796L169.51 415.541L281.602 423.941L193.673 518.796Z" fill="#0F0F0F"/>
<path d="M515.759 171.534L525.852 179.055L524.591 186.78L515.759 171.534Z" fill="#0F0F0F"/>
<path d="M281.602 423.941L411.146 445.345L326.567 532.565L281.602 423.941Z" fill="#0F0F0F"/>
<path d="M213.814 789.554L179.135 692.672L300.089 698.466L213.814 789.554Z" fill="#0F0F0F"/>
<path d="M281.602 423.941L327.936 318.338L411.146 445.345L281.602 423.941Z" fill="#0F0F0F"/>
<path d="M327.936 318.338L406.335 174.833L439.32 275.576L327.936 318.338Z" fill="#0F0F0F"/>
<path d="M403.083 674.828L380.603 866.803L300.089 698.466L403.083 674.828Z" fill="#0F0F0F"/>
<path d="M380.602 866.803L290.33 931.815V931.816L213.814 789.554L380.602 866.803Z" fill="#0F0F0F"/>
<path d="M233.074 1135.4L129.917 1058.54L257.728 1111.68L233.074 1135.4Z" fill="#0F0F0F"/>
<path d="M300.089 698.466L326.567 532.565L403.083 674.828L300.089 698.466Z" fill="#0F0F0F"/>
<path d="M326.567 532.565L411.145 445.345L478.831 607.734L326.567 532.565Z" fill="#272727"/>
<path d="M524.591 186.78L525.852 179.055L534.738 185.675L524.591 186.78Z" fill="#0F0F0F"/>
<path d="M583.152 739.402L534.268 833.227L403.083 674.828L583.152 739.402Z" fill="#0F0F0F"/>
<path d="M423.222 945.585L380.603 866.803L534.268 833.227L423.222 945.585Z" fill="#0F0F0F"/>
<path d="M315.557 1196.86L300.755 1185.83L257.728 1111.68L401.748 1100.08L315.557 1196.86Z" fill="#272727"/>
<path d="M257.728 1111.68L300.755 1185.83L233.073 1135.4L257.728 1111.68Z" fill="#0F0F0F"/>
<path d="M380.602 866.803H380.603L423.222 945.584L290.33 931.815L380.602 866.803Z" fill="#272727"/>
<path d="M467.137 1267.71L453.218 1299.43L339.326 1214.57L467.137 1267.71Z" fill="#0F0F0F"/>
<path d="M423.222 945.585L531.794 1120.34L401.748 1100.08L423.222 945.585Z" fill="#0F0F0F"/>
<path d="M506.467 1339.11L453.218 1299.43L467.137 1267.71L506.467 1339.11Z" fill="#0F0F0F"/>
<path d="M531.793 1120.34L576.254 1230.11L467.137 1267.71L531.793 1120.34Z" fill="#0F0F0F"/>
<path d="M285.675 0.64911L281.909 157.398L241.711 100.853L285.675 0.64911ZM285.545 0L241.276 100.898L282.264 158.553L286.063 0.386163L285.545 0Z" fill="url(#paint0_radial_31_496)"/>
<path d="M172.922 257.637L169.156 414.386L128.958 357.842L172.922 257.638M173.349 255.715L128.522 357.887L169.51 415.542L173.35 255.716L173.349 255.715Z" fill="url(#paint1_radial_31_496)"/>
<path d="M176.381 249.753L327.436 318.529L281.545 423.12L175.821 251.031L176.382 249.753M176.188 249.247L175.392 251.062L281.602 423.941L327.936 318.338L176.188 249.247Z" fill="url(#paint2_radial_31_496)"/>
<path d="M282.057 159.216L327.343 317.65L176.687 249.056L178.829 244.174L282.057 159.216ZM282.264 158.553L178.518 243.938L176.188 249.247L327.936 318.338L282.264 158.553Z" fill="url(#paint3_radial_31_496)"/>
<path d="M406.88 175.271L523.774 187.081L439.485 274.854L406.88 175.271ZM406.335 174.833L439.32 275.576L524.591 186.78L406.336 174.833H406.335Z" fill="url(#paint4_radial_31_496)"/>
<path d="M194.387 519.253L326.126 532.903L299.878 697.365L194.387 519.253ZM193.673 518.796L300.088 698.466L326.566 532.565L193.673 518.796Z" fill="url(#paint5_radial_31_496)"/>
<path d="M281.477 424.636L325.97 532.119L194.472 518.495L281.477 424.636ZM281.602 423.941L193.673 518.796L326.566 532.565L281.6 423.941H281.602Z" fill="url(#paint6_radial_31_496)"/>
<path d="M412.731 95.2426L515.468 171.792L523.887 186.325L406.744 174.491L412.732 95.2426M412.404 94.5236L406.336 174.834L524.591 186.781L515.759 171.535L412.403 94.5249L412.404 94.5236Z" fill="url(#paint7_radial_31_496)"/>
<path d="M327.468 533.433L478.154 607.824L403.191 674.223L327.468 533.433ZM326.567 532.565L403.083 674.828L478.831 607.734L326.567 532.565Z" fill="url(#paint8_radial_31_496)"/>
<path d="M187.184 957.293L289.85 932.326L257.568 1110.42L187.184 957.293ZM186.644 957.033L257.727 1111.68L290.329 931.818L186.644 957.034V957.033Z" fill="url(#paint9_radial_31_496)"/>
<path d="M214.009 790.722L289.76 931.561L187.111 956.524L214.008 790.722M213.811 789.552L186.643 957.03L290.327 931.814L213.811 789.551V789.552Z" fill="url(#paint10_radial_31_496)"/>
<path d="M299.985 699.13L379.803 866.011L214.456 789.43L299.986 699.132M300.091 698.467L213.815 789.553L380.604 866.803L300.091 698.466V698.467Z" fill="url(#paint11_radial_31_496)"/>
<path d="M439.502 276.807L536.647 473.818L411.58 445.054L439.502 276.807ZM439.32 275.576L411.146 445.345L537.345 474.37L439.32 275.576Z" fill="url(#paint12_radial_31_496)"/>
<path d="M290.536 932.817L401.074 1099.76L258.192 1111.26L290.536 932.817ZM290.33 931.816L257.728 1111.68L401.748 1100.08L290.33 931.816Z" fill="url(#paint13_radial_31_496)"/>
<path d="M403.357 675.756L533.574 832.988L381.043 866.316L403.357 675.756ZM403.083 674.826L380.603 866.801L534.268 833.225L403.083 674.826Z" fill="url(#paint14_radial_31_496)"/>
<path d="M478.782 608.287L582.024 738.594L403.817 674.687L478.782 608.287ZM478.831 607.734L403.083 674.828L583.152 739.403L478.832 607.736L478.831 607.734Z" fill="url(#paint15_radial_31_496)"/>
<path d="M402.344 1100.56L531.246 1120.64L467.158 1266.71L402.344 1100.56ZM401.748 1100.08L467.137 1267.71L531.794 1120.34L401.748 1100.09V1100.08Z" fill="url(#paint16_radial_31_496)"/>
<path d="M401.618 1100.8L466.456 1267.01L339.515 1214.24L316.118 1196.8L401.617 1100.8M401.747 1100.08L315.556 1196.86L339.324 1214.57L467.135 1267.71L401.747 1100.08Z" fill="url(#paint17_radial_31_496)"/>
<path d="M223.56 142.224L281.461 158.719L179.509 242.629L223.562 142.224M223.346 141.766L178.518 243.938L282.264 158.553L223.344 141.766H223.346Z" fill="url(#paint18_radial_31_496)"/>
<path d="M241.354 101.666L281.323 157.889L223.869 141.52L241.354 101.666ZM241.276 100.898L223.344 141.766L282.263 158.553L241.276 100.898Z" fill="url(#paint19_radial_31_496)"/>
<path d="M299.873 11.1517L412.007 94.7026L406.039 173.683L299.873 11.1517ZM298.382 9.56512L406.335 174.833L412.403 94.5223L298.382 9.56512Z" fill="url(#paint20_radial_31_496)"/>
<path d="M282.789 159.005L405.734 175.138L328.048 317.34L282.789 159.005ZM282.264 158.552L327.936 318.337L406.335 174.832L282.264 158.552Z" fill="url(#paint21_radial_31_496)"/>
<path d="M169.999 415.96L280.785 424.262L193.882 518.011L169.999 415.96ZM169.51 415.541L193.675 518.795L281.603 423.94L169.51 415.539V415.541Z" fill="url(#paint22_radial_31_496)"/>
<path d="M517.018 172.946L525.44 179.222L524.387 185.667L517.018 172.948M515.759 171.534L524.591 186.78L525.854 179.055L515.759 171.534Z" fill="url(#paint23_radial_31_496)"/>
<path d="M282.217 424.429L410.365 445.602L326.698 531.882L282.217 424.429ZM281.602 423.941L326.567 532.565L411.145 445.345L281.602 423.941Z" fill="url(#paint24_radial_31_496)"/>
<path d="M179.685 693.08L299.241 698.808L213.962 788.841L179.684 693.08M179.133 692.672L213.811 789.554L300.087 698.467L179.133 692.672Z" fill="url(#paint25_radial_31_496)"/>
<path d="M328.002 319.135L410.35 444.827L282.148 423.645L328.002 319.135ZM327.936 318.338L281.602 423.941L411.145 445.345L327.936 318.338Z" fill="url(#paint26_radial_31_496)"/>
<path d="M406.247 175.789L438.845 275.351L328.768 317.611L406.247 175.789ZM406.335 174.833L327.936 318.338L439.32 275.576L406.335 174.833Z" fill="url(#paint27_radial_31_496)"/>
<path d="M300.638 698.731L402.641 675.319L380.377 865.448L300.638 698.731ZM300.089 698.466L380.603 866.801L403.083 674.826L300.089 698.466Z" fill="url(#paint28_radial_31_496)"/>
<path d="M214.69 790.379L379.85 866.874L290.458 931.253L214.689 790.379M213.812 789.554L290.329 931.816L380.602 866.803L213.812 789.554Z" fill="url(#paint29_radial_31_496)"/>
<path d="M132.613 1060.07L257.045 1111.8L233.042 1134.9L132.613 1060.07M129.917 1058.54L233.074 1135.4L257.728 1111.67L129.917 1058.54V1058.54Z" fill="url(#paint30_radial_31_496)"/>
<path d="M326.765 533.738L402.51 674.567L300.554 697.968L326.765 533.737M326.567 532.563L300.089 698.465L403.083 674.825L326.567 532.562V532.563Z" fill="url(#paint31_radial_31_496)"/>
<path d="M411.016 446.026L478.088 606.943L327.205 532.455L411.017 446.027M411.147 445.346L326.568 532.566L478.832 607.736L411.147 445.346Z" fill="url(#paint32_radial_31_496)"/>
<path d="M526.128 179.735L533.733 185.401L525.048 186.347L526.128 179.735ZM525.854 179.055L524.591 186.78L534.738 185.675L525.852 179.054L525.854 179.055Z" fill="url(#paint33_radial_31_496)"/>
<path d="M404.264 675.656L582.612 739.614L534.196 832.542L404.264 675.656ZM403.083 674.827L534.268 833.227L583.152 739.402L403.083 674.826V674.827Z" fill="url(#paint34_radial_31_496)"/>
<path d="M381.179 867.067L533.092 833.875L423.312 944.951L381.179 867.067ZM380.602 866.803L423.222 945.585L534.267 833.228L380.602 866.804V866.803Z" fill="url(#paint35_radial_31_496)"/>
<path d="M258.361 1112.01L400.831 1100.54L315.505 1196.35L301.046 1185.57L258.361 1112.01M257.728 1111.67L300.755 1185.83L315.557 1196.86L401.748 1100.08L257.728 1111.67Z" fill="url(#paint36_radial_31_496)"/>
<path d="M257.642 1112.29L299.492 1184.42L233.66 1135.36L257.642 1112.29ZM257.728 1111.68L233.073 1135.4L300.755 1185.83L257.728 1111.68Z" fill="url(#paint37_radial_31_496)"/>
<path d="M380.473 867.365L422.544 945.132L291.365 931.541L380.473 867.365ZM380.603 866.803L290.33 931.817L423.222 945.585L380.602 866.803H380.603Z" fill="url(#paint38_radial_31_496)"/>
<path d="M342.021 1216.1L466.631 1267.91L453.061 1298.84L342.021 1216.1ZM339.325 1214.57L453.217 1299.43L467.135 1267.71L339.324 1214.57H339.325Z" fill="url(#paint39_radial_31_496)"/>
<path d="M423.454 946.681L531.031 1119.84L402.177 1099.77L423.456 946.682M423.223 945.586L401.748 1100.09L531.794 1120.34L423.223 945.585V945.586Z" fill="url(#paint40_radial_31_496)"/>
<path d="M467.176 1268.57L505.286 1337.75L453.69 1299.31L467.176 1268.57ZM467.137 1267.71L453.217 1299.43L506.467 1339.11L467.137 1267.71Z" fill="url(#paint41_radial_31_496)"/>
<path d="M531.779 1121.32L575.751 1229.88L467.836 1267.06L531.781 1121.32M531.795 1120.34L467.138 1267.71L576.255 1230.11L531.793 1120.34H531.795Z" fill="url(#paint42_radial_31_496)"/>
</g>
<defs>
<radialGradient id="paint0_radial_31_496" cx="0" cy="0" r="1" gradientUnits="userSpaceOnUse" gradientTransform="translate(274.234 82.5133) rotate(-18.34) scale(58.9877 58.9877)">
<stop stop-color="white"/>
<stop offset="1" stop-color="#272727"/>
</radialGradient>
<radialGradient id="paint1_radial_31_496" cx="0" cy="0" r="1" gradientUnits="userSpaceOnUse" gradientTransform="translate(161.565 338.915) rotate(-18.34) scale(59.4031 59.4031)">
<stop stop-color="white"/>
<stop offset="1" stop-color="#272727"/>
</radialGradient>
<radialGradient id="paint2_radial_31_496" cx="0" cy="0" r="1" gradientUnits="userSpaceOnUse" gradientTransform="translate(264.898 324.679) rotate(-18.34) scale(82.8256)">
<stop stop-color="white"/>
<stop offset="1" stop-color="#272727"/>
</radialGradient>
<radialGradient id="paint3_radial_31_496" cx="0" cy="0" r="1" gradientUnits="userSpaceOnUse" gradientTransform="translate(247.054 257.716) rotate(-18.34) scale(74.3885)">
<stop stop-color="white"/>
<stop offset="1" stop-color="#272727"/>
</radialGradient>
<radialGradient id="paint4_radial_31_496" cx="0" cy="0" r="1" gradientUnits="userSpaceOnUse" gradientTransform="translate(474.311 208.177) rotate(-18.34) scale(53.7275)">
<stop stop-color="white"/>
<stop offset="1" stop-color="#272727"/>
</radialGradient>
<radialGradient id="paint5_radial_31_496" cx="0" cy="0" r="1" gradientUnits="userSpaceOnUse" gradientTransform="translate(283.555 596.489) rotate(-18.34) scale(84.0133 84.0133)">
<stop stop-color="white"/>
<stop offset="1" stop-color="#272727"/>
</radialGradient>
<radialGradient id="paint6_radial_31_496" cx="0" cy="0" r="1" gradientUnits="userSpaceOnUse" gradientTransform="translate(250.281 496.111) rotate(-18.34) scale(59.7765 59.7765)">
<stop stop-color="white"/>
<stop offset="1" stop-color="#272727"/>
</radialGradient>
<radialGradient id="paint7_radial_31_496" cx="0" cy="0" r="1" gradientUnits="userSpaceOnUse" gradientTransform="translate(453.769 145.578) rotate(-18.34) scale(57.9524 57.9524)">
<stop stop-color="white"/>
<stop offset="1" stop-color="#272727"/>
</radialGradient>
<radialGradient id="paint8_radial_31_496" cx="0" cy="0" r="1" gradientUnits="userSpaceOnUse" gradientTransform="translate(408.936 589.097) rotate(-18.34) scale(70.6462 70.6462)">
<stop stop-color="white"/>
<stop offset="1" stop-color="#272727"/>
</radialGradient>
<radialGradient id="paint9_radial_31_496" cx="0" cy="0" r="1" gradientUnits="userSpaceOnUse" gradientTransform="translate(263.671 1020.6) rotate(-18.34) scale(70.645 70.645)">
<stop stop-color="white"/>
<stop offset="1" stop-color="#272727"/>
</radialGradient>
<radialGradient id="paint10_radial_31_496" cx="0" cy="0" r="1" gradientUnits="userSpaceOnUse" gradientTransform="translate(214.761 873.062) rotate(-18.34) scale(67.6649 67.6649)">
<stop stop-color="white"/>
<stop offset="1" stop-color="#272727"/>
</radialGradient>
<radialGradient id="paint11_radial_31_496" cx="0" cy="0" r="1" gradientUnits="userSpaceOnUse" gradientTransform="translate(287.826 800.062) rotate(-18.34) scale(80.797 80.797)">
<stop stop-color="white"/>
<stop offset="1" stop-color="#272727"/>
</radialGradient>
<radialGradient id="paint12_radial_31_496" cx="0" cy="0" r="1" gradientUnits="userSpaceOnUse" gradientTransform="translate(450.265 387.631) rotate(-18.34) scale(86.921)">
<stop stop-color="white"/>
<stop offset="1" stop-color="#272727"/>
</radialGradient>
<radialGradient id="paint13_radial_31_496" cx="0" cy="0" r="1" gradientUnits="userSpaceOnUse" gradientTransform="translate(304.419 1029.76) rotate(-18.34) scale(84.8809 84.8809)">
<stop stop-color="white"/>
<stop offset="1" stop-color="#272727"/>
</radialGradient>
<radialGradient id="paint14_radial_31_496" cx="0" cy="0" r="1" gradientUnits="userSpaceOnUse" gradientTransform="translate(429.826 766.933) rotate(-18.34) scale(87.4596 87.4596)">
<stop stop-color="white"/>
<stop offset="1" stop-color="#272727"/>
</radialGradient>
<radialGradient id="paint15_radial_31_496" cx="0" cy="0" r="1" gradientUnits="userSpaceOnUse" gradientTransform="translate(486.805 688.251) rotate(-18.34) scale(77.1221)">
<stop stop-color="white"/>
<stop offset="1" stop-color="#272727"/>
</radialGradient>
<radialGradient id="paint16_radial_31_496" cx="0" cy="0" r="1" gradientUnits="userSpaceOnUse" gradientTransform="translate(485.502 1166.98) rotate(-18.34) scale(75.8201 75.8201)">
<stop stop-color="white"/>
<stop offset="1" stop-color="#272727"/>
</radialGradient>
<radialGradient id="paint17_radial_31_496" cx="0" cy="0" r="1" gradientUnits="userSpaceOnUse" gradientTransform="translate(381.08 1201.6) rotate(-18.34) scale(76.7042 76.7042)">
<stop stop-color="white"/>
<stop offset="1" stop-color="#272727"/>
</radialGradient>
<radialGradient id="paint18_radial_31_496" cx="0" cy="0" r="1" gradientUnits="userSpaceOnUse" gradientTransform="translate(224.963 184.908) rotate(-18.34) scale(53.1266 53.1266)">
<stop stop-color="white"/>
<stop offset="1" stop-color="#272727"/>
</radialGradient>
<radialGradient id="paint19_radial_31_496" cx="0" cy="0" r="1" gradientUnits="userSpaceOnUse" gradientTransform="translate(247.59 134.455) rotate(-18.34) scale(29.8692 29.8692)">
<stop stop-color="white"/>
<stop offset="1" stop-color="#272727"/>
</radialGradient>
<radialGradient id="paint20_radial_31_496" cx="0" cy="0" r="1" gradientUnits="userSpaceOnUse" gradientTransform="translate(367.093 87.3513) rotate(-18.34) scale(73.3672 73.3672)">
<stop stop-color="white"/>
<stop offset="1" stop-color="#272727"/>
</radialGradient>
<radialGradient id="paint21_radial_31_496" cx="0" cy="0" r="1" gradientUnits="userSpaceOnUse" gradientTransform="translate(358.555 220.755) rotate(-18.34) scale(72.3433 72.3433)">
<stop stop-color="white"/>
<stop offset="1" stop-color="#272727"/>
</radialGradient>
<radialGradient id="paint22_radial_31_496" cx="0" cy="0" r="1" gradientUnits="userSpaceOnUse" gradientTransform="translate(230.809 450.867) rotate(-18.34) scale(54.7653 54.7653)">
<stop stop-color="white"/>
<stop offset="1" stop-color="#272727"/>
</radialGradient>
<radialGradient id="paint23_radial_31_496" cx="0" cy="0" r="1" gradientUnits="userSpaceOnUse" gradientTransform="translate(521.895 178.634) rotate(-18.34) scale(6.6105 6.6105)">
<stop stop-color="white"/>
<stop offset="1" stop-color="#272727"/>
</radialGradient>
<radialGradient id="paint24_radial_31_496" cx="0" cy="0" r="1" gradientUnits="userSpaceOnUse" gradientTransform="translate(355.189 461.335) rotate(-18.34) scale(58.3703 58.3703)">
<stop stop-color="white"/>
<stop offset="1" stop-color="#272727"/>
</radialGradient>
<radialGradient id="paint25_radial_31_496" cx="0" cy="0" r="1" gradientUnits="userSpaceOnUse" gradientTransform="translate(248.9 723.741) rotate(-18.34) scale(54.0234 54.0235)">
<stop stop-color="white"/>
<stop offset="1" stop-color="#272727"/>
</radialGradient>
<radialGradient id="paint26_radial_31_496" cx="0" cy="0" r="1" gradientUnits="userSpaceOnUse" gradientTransform="translate(332.877 394.025) rotate(-18.34) scale(66.1825 66.1825)">
<stop stop-color="white"/>
<stop offset="1" stop-color="#272727"/>
</radialGradient>
<radialGradient id="paint27_radial_31_496" cx="0" cy="0" r="1" gradientUnits="userSpaceOnUse" gradientTransform="translate(367.129 246.621) rotate(-18.34) scale(57.8139 57.8139)">
<stop stop-color="white"/>
<stop offset="1" stop-color="#272727"/>
</radialGradient>
<radialGradient id="paint28_radial_31_496" cx="0" cy="0" r="1" gradientUnits="userSpaceOnUse" gradientTransform="translate(379.1 769.805) rotate(-18.34) scale(75.2802 75.2802)">
<stop stop-color="white"/>
<stop offset="1" stop-color="#272727"/>
</radialGradient>
<radialGradient id="paint29_radial_31_496" cx="0" cy="0" r="1" gradientUnits="userSpaceOnUse" gradientTransform="translate(302.395 844.012) rotate(-18.34) scale(73.5476 73.5475)">
<stop stop-color="white"/>
<stop offset="1" stop-color="#272727"/>
</radialGradient>
<radialGradient id="paint30_radial_31_496" cx="0" cy="0" r="1" gradientUnits="userSpaceOnUse" gradientTransform="translate(196.072 1092.13) rotate(-18.34) scale(52.5042 52.5042)">
<stop stop-color="white"/>
<stop offset="1" stop-color="#272727"/>
</radialGradient>
<radialGradient id="paint31_radial_31_496" cx="0" cy="0" r="1" gradientUnits="userSpaceOnUse" gradientTransform="translate(328.082 615.9) rotate(-18.34) scale(67.4388 67.4388)">
<stop stop-color="white"/>
<stop offset="1" stop-color="#272727"/>
</radialGradient>
<radialGradient id="paint32_radial_31_496" cx="0" cy="0" r="1" gradientUnits="userSpaceOnUse" gradientTransform="translate(393.831 543.531) rotate(-18.34) scale(75.3221 75.3221)">
<stop stop-color="white"/>
<stop offset="1" stop-color="#272727"/>
</radialGradient>
<radialGradient id="paint33_radial_31_496" cx="0" cy="0" r="1" gradientUnits="userSpaceOnUse" gradientTransform="translate(528.571 182.985) rotate(-18.34) scale(4.76988 4.76988)">
<stop stop-color="white"/>
<stop offset="1" stop-color="#272727"/>
</radialGradient>
<radialGradient id="paint34_radial_31_496" cx="0" cy="0" r="1" gradientUnits="userSpaceOnUse" gradientTransform="translate(504.664 742.125) rotate(-18.34) scale(86.1715 86.1715)">
<stop stop-color="white"/>
<stop offset="1" stop-color="#272727"/>
</radialGradient>
<radialGradient id="paint35_radial_31_496" cx="0" cy="0" r="1" gradientUnits="userSpaceOnUse" gradientTransform="translate(468.661 884.087) rotate(-18.34) scale(63.4882 63.4883)">
<stop stop-color="white"/>
<stop offset="1" stop-color="#272727"/>
</radialGradient>
<radialGradient id="paint36_radial_31_496" cx="0" cy="0" r="1" gradientUnits="userSpaceOnUse" gradientTransform="translate(339.848 1136.63) rotate(-18.34) scale(60.7356 60.7355)">
<stop stop-color="white"/>
<stop offset="1" stop-color="#272727"/>
</radialGradient>
<radialGradient id="paint37_radial_31_496" cx="0" cy="0" r="1" gradientUnits="userSpaceOnUse" gradientTransform="translate(264.514 1153.64) rotate(-18.34) scale(34.2491 34.2491)">
<stop stop-color="white"/>
<stop offset="1" stop-color="#272727"/>
</radialGradient>
<radialGradient id="paint38_radial_31_496" cx="0" cy="0" r="1" gradientUnits="userSpaceOnUse" gradientTransform="translate(351.477 922.932) rotate(-18.34) scale(53.1673 53.1673)">
<stop stop-color="white"/>
<stop offset="1" stop-color="#272727"/>
</radialGradient>
<radialGradient id="paint39_radial_31_496" cx="0" cy="0" r="1" gradientUnits="userSpaceOnUse" gradientTransform="translate(407.195 1253.39) rotate(-18.34) scale(55.3255 55.3254)">
<stop stop-color="white"/>
<stop offset="1" stop-color="#272727"/>
</radialGradient>
<radialGradient id="paint40_radial_31_496" cx="0" cy="0" r="1" gradientUnits="userSpaceOnUse" gradientTransform="translate(444.688 1043.86) rotate(-18.34) scale(81.9466 81.9466)">
<stop stop-color="white"/>
<stop offset="1" stop-color="#272727"/>
</radialGradient>
<radialGradient id="paint41_radial_31_496" cx="0" cy="0" r="1" gradientUnits="userSpaceOnUse" gradientTransform="translate(475.704 1307.1) rotate(-18.34) scale(31.3694 31.3694)">
<stop stop-color="white"/>
<stop offset="1" stop-color="#272727"/>
</radialGradient>
<radialGradient id="paint42_radial_31_496" cx="0" cy="0" r="1" gradientUnits="userSpaceOnUse" gradientTransform="translate(503.018 1192.87) rotate(-18.34) scale(58.7425 58.7425)">
<stop stop-color="white"/>
<stop offset="1" stop-color="#272727"/>
</radialGradient>
</defs>
</svg>
