<svg width="19" height="22" viewBox="0 0 19 22" fill="none" xmlns="http://www.w3.org/2000/svg">
<g clip-path="url(#clip0_135_318)">
<path d="M7.11073 18.6904C7.12446 20.0562 8.22718 21.171 9.57469 21.171C10.9222 21.171 12.0261 20.0574 12.0386 18.6904H7.10959H7.11073Z" fill="#FFC240"/>
<path d="M17.1645 16.3319C16.1201 16.3319 15.2736 12.9295 15.2736 11.8682V9.20395C15.2736 6.35721 13.2249 3.97542 10.5516 3.50116V1.85635C10.5516 1.31118 10.1123 0.863647 9.57468 0.863647C9.0382 0.863647 8.5978 1.31001 8.5978 1.85635V3.50116C5.9245 3.97542 3.87578 6.35721 3.87578 9.20395V11.8682C3.87578 12.9295 3.0293 16.3319 1.98492 16.3319C1.4919 16.3319 1.05722 16.698 1.00116 17.1955C0.969135 17.4803 1.06065 17.7442 1.22766 17.9418H17.9206C18.0876 17.7454 18.1791 17.4803 18.1471 17.1955C18.091 16.6969 17.6575 16.3319 17.1633 16.3319H17.1645Z" fill="#FFC240"/>
<path d="M2.27318 9.89096C1.95747 9.89096 1.70123 9.63058 1.70123 9.30976C1.70123 6.28981 3.33701 3.54071 5.97141 2.13535C6.25166 1.98656 6.59712 2.09583 6.74354 2.37946C6.88996 2.66425 6.78243 3.0153 6.50332 3.16408C4.24755 4.36718 2.84513 6.72223 2.84513 9.30976C2.84513 9.63058 2.5889 9.89096 2.27318 9.89096Z" fill="#FFC240"/>
<path d="M0.405181 9.6693C0.215294 9.6693 0.0620117 9.51354 0.0620117 9.32058C0.0620117 5.63224 2.07184 2.29845 5.30679 0.619925C5.47608 0.532744 5.68199 0.600164 5.76892 0.772201C5.85471 0.944237 5.78837 1.15347 5.61907 1.24181C2.61519 2.79945 0.748351 5.89611 0.748351 9.32058C0.748351 9.51354 0.595068 9.6693 0.405181 9.6693Z" fill="#FFC240"/>
</g>
<defs>
<clipPath id="clip0_135_318">
<rect width="18.093" height="20.5886" fill="white" transform="translate(0.0620117 0.581299)"/>
</clipPath>
</defs>
</svg>
