<svg width="19" height="21" viewBox="0 0 19 21" fill="none" xmlns="http://www.w3.org/2000/svg">
<g clip-path="url(#clip0_30_1395)">
<path d="M7.50664 18.4348C7.52036 19.8006 8.62308 20.9154 9.9706 20.9154C11.3181 20.9154 12.422 19.8018 12.4346 18.4348H7.50549H7.50664Z" fill="#FFC240"/>
<path d="M17.5603 16.0763C16.5159 16.0763 15.6694 12.6739 15.6694 11.6126V8.9484C15.6694 6.10165 13.6207 3.71987 10.9474 3.24561V1.60079C10.9474 1.05562 10.5082 0.608093 9.97054 0.608093C9.43405 0.608093 8.99365 1.05446 8.99365 1.60079V3.24561C6.32036 3.71987 4.27164 6.10165 4.27164 8.9484V11.6126C4.27164 12.6739 3.42515 16.0763 2.38078 16.0763C1.88776 16.0763 1.45307 16.4425 1.39702 16.94C1.36499 17.2248 1.45651 17.4886 1.62351 17.6863H18.3164C18.4834 17.4898 18.5749 17.2248 18.5429 16.94C18.4869 16.4413 18.0533 16.0763 17.5592 16.0763H17.5603Z" fill="#FFC240"/>
<path d="M2.66906 9.63544C2.35334 9.63544 2.09711 9.37506 2.09711 9.05423C2.09711 6.03429 3.73288 3.28518 6.36728 1.87983C6.64754 1.73104 6.99299 1.8403 7.13941 2.12393C7.28583 2.40872 7.1783 2.75977 6.89919 2.90856C4.64343 4.11166 3.24101 6.4667 3.24101 9.05423C3.24101 9.37506 2.98477 9.63544 2.66906 9.63544Z" fill="#FFC240"/>
<path d="M0.801055 9.41372C0.611168 9.41372 0.457886 9.25795 0.457886 9.06499C0.457886 5.37666 2.46772 2.04286 5.70266 0.36434C5.87196 0.277159 6.07786 0.344579 6.1648 0.516616C6.25059 0.688653 6.18424 0.897887 6.01495 0.98623C3.01107 2.54386 1.14422 5.64053 1.14422 9.06499C1.14422 9.25795 0.990942 9.41372 0.801055 9.41372Z" fill="#FFC240"/>
</g>
<defs>
<clipPath id="clip0_30_1395">
<rect width="18.093" height="20.5886" fill="white" transform="translate(0.457886 0.325745)"/>
</clipPath>
</defs>
</svg>
