<svg width="19" height="22" viewBox="0 0 19 22" fill="none" xmlns="http://www.w3.org/2000/svg">
<g clip-path="url(#clip0_135_219)">
<path d="M7.50664 18.6906C7.52036 20.0564 8.62308 21.1712 9.9706 21.1712C11.3181 21.1712 12.422 20.0576 12.4346 18.6906H7.50549H7.50664Z" fill="#FFC240"/>
<path d="M17.5603 16.3321C16.5159 16.3321 15.6694 12.9297 15.6694 11.8684V9.2042C15.6694 6.35745 13.6207 3.97567 10.9474 3.5014V1.85659C10.9474 1.31142 10.5082 0.863892 9.97054 0.863892C9.43405 0.863892 8.99365 1.31026 8.99365 1.85659V3.5014C6.32036 3.97567 4.27164 6.35745 4.27164 9.2042V11.8684C4.27164 12.9297 3.42515 16.3321 2.38078 16.3321C1.88776 16.3321 1.45307 16.6983 1.39702 17.1958C1.36499 17.4806 1.45651 17.7444 1.62351 17.942H18.3164C18.4834 17.7456 18.5749 17.4806 18.5429 17.1958C18.4869 16.6971 18.0533 16.3321 17.5592 16.3321H17.5603Z" fill="#FFC240"/>
<path d="M2.66906 9.89121C2.35334 9.89121 2.09711 9.63082 2.09711 9.31C2.09711 6.29005 3.73288 3.54095 6.36728 2.13559C6.64754 1.9868 6.99299 2.09607 7.13941 2.3797C7.28583 2.66449 7.1783 3.01554 6.89919 3.16433C4.64343 4.36742 3.24101 6.72247 3.24101 9.31C3.24101 9.63082 2.98477 9.89121 2.66906 9.89121Z" fill="#FFC240"/>
<path d="M0.801055 9.66955C0.611168 9.66955 0.457886 9.51378 0.457886 9.32082C0.457886 5.63249 2.46772 2.29869 5.70266 0.620169C5.87196 0.532988 6.07786 0.600408 6.1648 0.772445C6.25059 0.944482 6.18424 1.15372 6.01495 1.24206C3.01107 2.79969 1.14422 5.89636 1.14422 9.32082C1.14422 9.51378 0.990942 9.66955 0.801055 9.66955Z" fill="#FFC240"/>
</g>
<defs>
<clipPath id="clip0_135_219">
<rect width="18.093" height="20.5886" fill="white" transform="translate(0.457886 0.581543)"/>
</clipPath>
</defs>
</svg>
