<svg width="19" height="21" viewBox="0 0 19 21" fill="none" xmlns="http://www.w3.org/2000/svg">
<g clip-path="url(#clip0_135_271)">
<path d="M7.24452 18.4333C7.25825 19.7991 8.36097 20.9139 9.70848 20.9139C11.056 20.9139 12.1599 19.8003 12.1724 18.4333H7.24338H7.24452Z" fill="#FFC240"/>
<path d="M17.2982 16.0748C16.2538 16.0748 15.4074 12.6724 15.4074 11.6111V8.94687C15.4074 6.10013 13.3586 3.71834 10.6853 3.24408V1.59927C10.6853 1.0541 10.2461 0.606567 9.70846 0.606567C9.17197 0.606567 8.73157 1.05293 8.73157 1.59927V3.24408C6.05828 3.71834 4.00955 6.10013 4.00955 8.94687V11.6111C4.00955 12.6724 3.16307 16.0748 2.11869 16.0748C1.62567 16.0748 1.19099 16.4409 1.13494 16.9385C1.10291 17.2232 1.19442 17.4871 1.36143 17.6847H18.0543C18.2214 17.4883 18.3129 17.2232 18.2808 16.9385C18.2248 16.4398 17.7912 16.0748 17.2971 16.0748H17.2982Z" fill="#FFC240"/>
<path d="M2.40697 9.63388C2.09126 9.63388 1.83502 9.3735 1.83502 9.05268C1.83502 6.03273 3.4708 3.28363 6.1052 1.87827C6.38545 1.72948 6.73091 1.83875 6.87733 2.12238C7.02375 2.40717 6.91622 2.75822 6.63711 2.907C4.38134 4.1101 2.97892 6.46515 2.97892 9.05268C2.97892 9.3735 2.72269 9.63388 2.40697 9.63388Z" fill="#FFC240"/>
<path d="M0.53897 9.41222C0.349083 9.41222 0.195801 9.25646 0.195801 9.0635C0.195801 5.37516 2.20563 2.04137 5.44058 0.362844C5.60987 0.275664 5.81577 0.343083 5.90271 0.51512C5.9885 0.687157 5.92216 0.896392 5.75286 0.984735C2.74898 2.54237 0.88214 5.63903 0.88214 9.0635C0.88214 9.25646 0.728858 9.41222 0.53897 9.41222Z" fill="#FFC240"/>
</g>
<defs>
<clipPath id="clip0_135_271">
<rect width="18.093" height="20.5886" fill="white" transform="translate(0.195801 0.324219)"/>
</clipPath>
</defs>
</svg>
