<svg width="19" height="21" viewBox="0 0 19 21" fill="none" xmlns="http://www.w3.org/2000/svg">
<g clip-path="url(#clip0_30_1332)">
<path d="M7.11073 18.4333C7.12446 19.7991 8.22718 20.9138 9.57469 20.9138C10.9222 20.9138 12.0261 19.8003 12.0386 18.4333H7.10959H7.11073Z" fill="#FFC240"/>
<path d="M17.1645 16.0748C16.1201 16.0748 15.2736 12.6724 15.2736 11.6111V8.94684C15.2736 6.1001 13.2249 3.71831 10.5516 3.24405V1.59924C10.5516 1.05407 10.1123 0.606537 9.57468 0.606537C9.0382 0.606537 8.5978 1.0529 8.5978 1.59924V3.24405C5.9245 3.71831 3.87578 6.1001 3.87578 8.94684V11.6111C3.87578 12.6724 3.0293 16.0748 1.98492 16.0748C1.4919 16.0748 1.05722 16.4409 1.00116 16.9384C0.969135 17.2232 1.06065 17.4871 1.22766 17.6847H17.9206C18.0876 17.4882 18.1791 17.2232 18.1471 16.9384C18.091 16.4397 17.6575 16.0748 17.1633 16.0748H17.1645Z" fill="#FFC240"/>
<path d="M2.27318 9.63388C1.95747 9.63388 1.70123 9.3735 1.70123 9.05268C1.70123 6.03273 3.33701 3.28363 5.97141 1.87827C6.25166 1.72948 6.59712 1.83875 6.74354 2.12238C6.88996 2.40717 6.78243 2.75822 6.50332 2.907C4.24755 4.1101 2.84513 6.46515 2.84513 9.05268C2.84513 9.3735 2.5889 9.63388 2.27318 9.63388Z" fill="#FFC240"/>
<path d="M0.405181 9.41216C0.215294 9.41216 0.0620117 9.2564 0.0620117 9.06344C0.0620117 5.3751 2.07184 2.04131 5.30679 0.362783C5.47608 0.275603 5.68199 0.343022 5.76892 0.515059C5.85471 0.687096 5.78837 0.89633 5.61907 0.984674C2.61519 2.54231 0.748351 5.63897 0.748351 9.06344C0.748351 9.2564 0.595068 9.41216 0.405181 9.41216Z" fill="#FFC240"/>
</g>
<defs>
<clipPath id="clip0_30_1332">
<rect width="18.093" height="20.5886" fill="white" transform="translate(0.0620117 0.324188)"/>
</clipPath>
</defs>
</svg>
